<svg width="34" height="28" viewBox="0 0 34 28" fill="none" xmlns="http://www.w3.org/2000/svg">
<path d="M0.208 27.736C0.208 25.816 0.208 23.96 0.208 22.168C0.272 20.312 0.336 18.616 0.4 17.08C0.592 11.576 1.456 7.448 2.992 4.696C4.592 1.88 7.6 0.471998 12.016 0.471998L13.168 5.368C10.672 5.432 9.072 6.264 8.368 7.86399C7.664 9.464 7.312 11.512 7.312 14.008H14.032V27.736H0.208ZM19.888 27.736C19.888 25.816 19.888 23.96 19.888 22.168C19.952 20.312 20.016 18.616 20.08 17.08C20.272 11.576 21.136 7.448 22.672 4.696C24.272 1.88 27.28 0.471998 31.696 0.471998L32.848 5.368C30.352 5.432 28.752 6.264 28.048 7.86399C27.344 9.464 26.992 11.512 26.992 14.008H33.712V27.736H19.888Z" fill="#F7654A"/>
</svg>
